<?xml version="1.0" standalone="no"?>
<!DOCTYPE svg PUBLIC "-//W3C//DTD SVG 20010904//EN"
 "http://www.w3.org/TR/2001/REC-SVG-20010904/DTD/svg10.dtd">
<svg version="1.0" xmlns="http://www.w3.org/2000/svg"
 width="700.000000pt" height="700.000000pt" viewBox="0 0 700.000000 700.000000"
 preserveAspectRatio="xMidYMid meet">
<metadata>
Created by potrace 1.14, written by Peter Selinger 2001-2017
</metadata>
<g transform="translate(0.000000,700.000000) scale(0.100000,-0.100000)"
fill="#000000" stroke="none">
<path d="M4148 6896 c-1 -2 -67 -6 -146 -9 -79 -4 -146 -8 -150 -10 -4 -3 -32
-8 -62 -11 -138 -16 -352 -80 -520 -155 -328 -146 -629 -401 -817 -694 -23
-37 -43 -69 -43 -71 0 -2 -17 -35 -38 -73 -62 -112 -134 -317 -157 -448 -65
-364 -15 -727 147 -1049 73 -145 189 -315 275 -404 7 -7 13 -15 13 -16 0 -1
-595 -2 -1322 -2 l-1323 1 0 -639 0 -640 1920 -3 c1056 -2 2080 -4 2275 -6
347 -4 356 -4 410 -27 253 -109 416 -338 424 -598 10 -294 -143 -504 -439
-603 l-70 -23 -2263 -1 -2262 0 2 -635 3 -634 855 -3 c3566 -10 4052 -10 4139
4 528 83 946 560 1027 1173 10 75 11 260 3 350 -24 246 -106 481 -244 695 -38
60 -100 132 -184 213 l-85 83 740 -3 739 -3 0 640 0 640 -310 2 c-170 1 -487
2 -702 3 -339 1 -422 5 -385 22 17 7 115 131 175 220 150 225 247 486 276 748
10 90 8 347 -3 400 -3 13 -8 42 -11 65 -4 22 -11 58 -17 80 -5 22 -12 49 -14
60 -11 60 -62 194 -114 300 -115 237 -278 442 -485 611 -132 108 -357 241
-490 289 -27 10 -54 22 -60 25 -27 19 -253 81 -360 99 -108 18 -129 21 -225
27 -52 3 -100 7 -107 9 -6 2 -13 2 -15 1z m129 -1345 c310 -58 565 -298 649
-611 23 -87 28 -284 9 -370 -69 -318 -287 -555 -592 -642 -63 -18 -103 -23
-208 -23 -142 0 -175 5 -267 36 -266 89 -465 305 -539 584 -30 112 -31 298 -2
410 111 429 523 696 950 616z"/>
</g>
</svg>
